<?xml version="1.0" standalone="no"?>
<!DOCTYPE svg PUBLIC "-//W3C//DTD SVG 20010904//EN"
 "http://www.w3.org/TR/2001/REC-SVG-20010904/DTD/svg10.dtd">
<svg version="1.0" xmlns="http://www.w3.org/2000/svg"
 width="512.000000pt" height="512.000000pt" viewBox="0 0 512.000000 512.000000"
 preserveAspectRatio="xMidYMid meet">
<metadata>
Created by potrace 1.14, written by Peter Selinger 2001-2017
</metadata>
<g transform="translate(0.000000,512.000000) scale(0.100000,-0.100000)"
fill="#000000" stroke="none">
<path d="M2379 5116 c-2 -2 -35 -6 -74 -10 -467 -41 -965 -243 -1338 -543
-112 -90 -187 -165 -191 -188 -5 -29 20 -72 46 -81 13 -4 183 -7 378 -6 l354
0 23 27 c30 34 29 70 -2 99 -25 23 -28 23 -268 24 -133 0 -240 4 -237 9 9 14
91 74 190 139 107 69 314 175 435 222 88 35 298 97 360 106 22 4 56 11 75 15
152 39 603 48 767 17 11 -3 44 -7 74 -11 30 -4 57 -9 60 -11 3 -2 19 -5 35 -8
58 -11 249 -67 343 -102 214 -80 471 -226 656 -375 109 -87 307 -286 387 -389
251 -324 424 -714 483 -1090 4 -25 9 -52 10 -61 6 -31 18 -174 19 -219 l1 -45
-2395 0 c-1317 -1 -2401 1 -2407 3 -9 3 -11 20 -6 60 3 32 8 59 10 62 3 3 501
5 1108 5 l1104 0 25 24 c14 14 26 32 26 42 0 33 -22 68 -49 77 -14 4 -542 8
-1173 8 -1147 -1 -1147 -1 -1168 -22 -28 -28 -35 -107 -34 -369 1 -227 10
-287 47 -307 26 -14 1656 -20 1696 -6 32 11 50 37 51 71 0 27 -29 66 -52 68
-7 1 -366 2 -798 3 l-784 2 -6 29 c-3 17 -6 46 -5 65 l0 35 2395 0 c1317 1
2400 -1 2407 -3 11 -3 10 -108 -2 -120 -3 -3 -219 -6 -481 -6 l-475 -1 -19
-25 c-11 -14 -20 -37 -20 -51 0 -31 33 -69 63 -70 12 -1 221 -2 464 -3 243 0
444 -3 447 -7 3 -3 0 -39 -7 -80 l-13 -74 -222 -1 c-218 -1 -223 -2 -247 -24
-36 -34 -34 -82 4 -109 27 -20 43 -21 225 -21 126 0 196 -4 196 -10 0 -21 -92
-264 -133 -350 l-42 -89 -40 -1 c-22 0 -303 -1 -623 -3 l-584 -2 -19 -24 c-25
-31 -24 -64 4 -96 l22 -26 573 -1 c314 0 572 -3 572 -5 0 -10 -90 -137 -158
-223 -354 -445 -876 -761 -1429 -865 -160 -30 -233 -37 -403 -40 -548 -7
-1015 138 -1462 456 -48 35 -86 65 -83 67 3 3 99 5 214 6 187 1 211 3 229 19
11 10 22 29 25 42 6 32 -25 81 -55 86 -12 3 -166 4 -341 4 -311 -1 -318 -1
-339 -22 -39 -40 -29 -78 38 -142 323 -312 800 -545 1299 -635 17 -3 57 -9 90
-12 33 -4 64 -9 70 -12 15 -9 425 -10 500 -1 143 17 162 20 240 35 627 116
1200 477 1583 995 243 329 415 737 468 1109 2 19 6 44 9 55 29 141 27 537 -4
740 -113 739 -559 1409 -1197 1798 -259 158 -595 288 -859 332 -16 3 -39 7
-51 9 -12 2 -45 7 -74 11 -29 4 -62 9 -74 12 -24 5 -452 14 -457 9z"/>
<path d="M3709 4256 c-3 -3 -20 -8 -39 -11 -124 -22 -261 -137 -329 -276 -56
-115 -72 -184 -76 -320 -14 -464 341 -890 721 -866 102 6 124 11 196 48 334
169 412 694 161 1084 -109 167 -260 285 -422 326 -66 17 -200 26 -212 15z
m193 -164 c344 -114 542 -606 381 -948 -33 -72 -111 -152 -178 -184 -98 -48
-245 -34 -359 34 -104 62 -200 177 -261 309 -114 252 -89 547 61 701 94 97
228 130 356 88z"/>
<path d="M3809 3672 c-73 -37 -88 -154 -31 -241 82 -126 232 -85 232 63 0 127
-110 224 -201 178z"/>
<path d="M547 4115 c-23 -7 -48 -36 -98 -109 -37 -55 -73 -111 -81 -125 -7
-14 -23 -41 -35 -60 -28 -41 -29 -81 -4 -112 19 -24 22 -24 220 -25 131 -1
209 3 223 10 52 26 56 100 7 127 -14 7 -70 12 -141 13 -65 0 -118 3 -118 5 0
4 71 110 87 130 2 3 276 5 609 5 l606 1 19 24 c10 13 19 36 19 52 0 29 -29 68
-52 70 -74 8 -1238 2 -1261 -6z"/>
<path d="M194 3502 c-36 -29 -128 -312 -119 -363 8 -41 41 -59 109 -59 33 -1
287 -1 564 -1 442 0 507 2 528 16 46 30 39 106 -11 125 -16 6 -222 10 -522 10
l-495 0 6 28 c4 15 14 46 23 70 l16 42 236 0 c225 0 238 1 259 20 12 12 23 25
23 30 1 6 2 16 3 23 4 23 -23 64 -46 71 -13 3 -142 6 -288 6 -236 0 -267 -2
-286 -18z"/>
<path d="M143 2042 c-46 -5 -74 -43 -67 -91 8 -48 71 -257 91 -299 9 -19 27
-38 41 -43 15 -6 259 -8 604 -7 l580 3 19 24 c26 32 24 67 -6 96 l-24 25 -544
0 -544 0 -25 70 -25 70 1029 0 c884 0 1033 2 1057 15 47 24 54 68 18 111 l-24
27 -1074 1 c-591 1 -1089 0 -1106 -2z"/>
<path d="M360 1433 c-31 -11 -50 -37 -50 -65 0 -58 190 -350 238 -365 43 -13
1713 -9 1738 5 30 16 45 63 30 93 -24 49 -20 48 -696 48 -349 0 -720 0 -825 1
l-190 0 -42 63 c-22 34 -39 65 -37 69 2 3 53 6 113 6 128 0 147 4 166 42 20
38 4 85 -34 98 -29 10 -386 15 -411 5z"/>
</g>
</svg>
